<?xml version="1.0" encoding="utf-8"?>
<!-- Generator: Adobe Illustrator 23.0.2, SVG Export Plug-In . SVG Version: 6.00 Build 0)  -->
<svg version="1.1" id="Layer_1" xmlns="http://www.w3.org/2000/svg" xmlns:xlink="http://www.w3.org/1999/xlink" x="0px" y="0px"
	 viewBox="0 0 1200.3 600" style="enable-background:new 0 0 1200.3 600;" xml:space="preserve">
<style type="text/css">
	.st0{fill:#333334;}
	.st1{fill:#BAE3E3;}
	.st2{opacity:0.5;}
	.st3{fill:#FAAB74;}
	.st4{opacity:0.6;}
</style>
<g>
	<path class="st0" d="M1.9,136c0.4-2.1,0.5-4.3,0.4-6.4c-1.7,0.1-3.4-0.1-5.1-0.4v22.3C-1.3,146.3,0.3,141.2,1.9,136z"/>
	<path class="st0" d="M359.2-0.3V1h-362v128.2c1.7,0.3,3.4,0.5,5.1,0.4c0.1,2.1,0,4.3-0.4,6.4c-1.6,5.2-3.2,10.3-4.7,15.4v76.7
		c15.7,63.6,16,127.3,7.7,191.8c-2.3,16.9-5.5,33.5-7.7,50.3v67c0.7,3.9,1.6,7.8,2.7,11.7c3,9,0,19,2,28c1,8,7,15,4,24c0,0-2,0-3,0
		v2.3h228.3V601h377.3v2.3h593V-0.3H359.2z"/>
	<path class="st0" d="M5.8,601c3-9-3-16-4-24c-2-9,1-19-2-28c-1.1-3.9-1.9-7.8-2.7-11.7v66h5.7c0-0.7,0-1.7,0-2.3
		C3.8,601,5.8,601,5.8,601z"/>
	<path class="st0" d="M-2.8,228.2v242.1c2.2-16.7,5.3-33.4,7.7-50.3C13.1,355.5,12.9,291.8-2.8,228.2z"/>
</g>
<g>
	<g id="XMLID_3_">
		<g>
			<path class="st1" d="M327.1,32.9c84.4,89.4,111.8,200.7,61.2,248.4c-50.6,47.8-160.1,14-244.5-75.4
				C78.9,137.1,47.7,55.5,59.7-0.3h231.9C303.8,9.7,315.7,20.8,327.1,32.9z"/>
		</g>
	</g>
	<g id="XMLID_2_">
		<g>
			<path class="st1" d="M613.8,35.5c0-12.4,3.6-24.2,10.2-35.1h283.3c6.6,10.9,10.2,22.8,10.2,35.1c0,53.9-68,97.5-151.8,97.5
				C681.8,133,613.8,89.3,613.8,35.5z"/>
		</g>
	</g>
	<g id="XMLID_1_">
		<path class="st1" d="M1043.9,174.9c118.1,0,213.9,40.5,213.9,90.6S1162,356,1043.9,356S830,315.5,830,265.4
			S925.7,174.9,1043.9,174.9z"/>
	</g>
	<path class="st1" d="M903.7,463.9c72.6,0,131.5,29.8,131.5,66.6c0,36.8-58.9,66.6-131.5,66.6s-131.5-29.8-131.5-66.6
		C772.3,493.7,831.1,463.9,903.7,463.9z"/>
	<path class="st1" d="M417.6,597.6c-5.4-4.4-10.8-9-16.2-13.7c-69.3-60.7-111.8-125.4-95.1-144.5C323,420.3,392.7,454,462,514.8
		c32.4,28.4,59,57.7,76.4,82.8H417.6z"/>
	<g id="XMLID_6_" class="st2">
		<g>
			<path class="st3" d="M671.5,366.9c15.3,128.9-2.5,242.7-39.8,254.1c-37.3,11.5-79.9-83.7-95.2-212.5
				c-15.3-128.9,2.5-242.7,39.8-254.2C613.6,142.9,656.2,238,671.5,366.9z"/>
		</g>
	</g>
	<g id="XMLID_5_" class="st4">
		<g>
			<path class="st3" d="M2.2,128.1c1,0.3,2,0.6,3,1c-1,0.2-1.9,0.4-2.9,0.4C2.3,129.1,2.2,128.6,2.2,128.1z"/>
			<path class="st3" d="M1.9,598.3V561h-2.7V133.1C55.4,160,113.7,269.2,140,406.9c13.5,70.4,16.4,137,10.5,191.5H1.9z"/>
		</g>
	</g>
</g>
</svg>
